# File created by Blade
# Date/Time:  Thu Jan 22 16:16:06 2015
# Frame Rate: 120.000 fps
#------------------------------------------------------
:FULLY-SPECIFIED
:DEGREES
986
root 5.664822 32.937541 -8.642524 54.329075 23.236175 14.613418
RightUpLeg -41.763465 -49.427183 -13.454050
RightLeg -7.667992 -0.000000 0.000000
RightFoot -0.352804 -30.881549 39.654109
RightToeBase 14.126498 -0.000000 -0.000000
LeftUpLeg -84.754514 -8.323737 11.913838
LeftLeg 33.195492 -0.000000 -0.000000
LeftFoot -4.530897 5.712049 -29.976923
LeftToeBase 9.686992 -0.000000 -0.000000
Spine 77.824369 -0.819053 -12.758841
RightShoulder 12.543672 16.279143 -50.310739
RightArm 66.523909 26.496614 35.082715
RightForeArm -32.315292 -0.000000 28.750951
RightHand 8.457336 0.000000 -15.755369
RightHandThumb1 -24.326973 -0.000000 -32.862282
LeftShoulder 7.477486 19.376975 38.970817
LeftArm 86.843430 -50.076168 -40.578919
LeftForeArm 43.169121 -0.000000 12.825902
LeftHand -16.756637 -0.000000 12.169677
LeftHandThumb1 -26.253704 0.000000 33.147579
Head -14.024741 8.040272 -22.644089
987
root 5.650890 32.941805 -8.654576 54.590259 23.184262 14.643406
RightUpLeg -42.120614 -49.437783 -13.254556
RightLeg -7.704476 -0.000000 0.000000
RightFoot -0.361471 -30.910225 39.677253
RightToeBase 14.093602 -0.000000 -0.000000
LeftUpLeg -84.941765 -8.241253 11.869100
LeftLeg 33.048062 -0.000000 -0.000000
LeftFoot -4.393762 5.756110 -29.899381
LeftToeBase 9.586762 -0.000000 -0.000000
Spine 77.871152 -0.913844 -12.960748
RightShoulder 12.539414 16.248867 -50.363265
RightArm 66.604963 26.821030 34.922105
RightForeArm -32.113567 -0.000000 28.596130
RightHand 8.760935 0.000000 -16.277831
RightHandThumb1 -24.326973 -0.000000 -32.862282
LeftShoulder 7.190141 19.566408 38.914082
LeftArm 86.881164 -50.283882 -40.648986
LeftForeArm 42.894632 -0.000000 12.813789
LeftHand -16.907875 0.000000 12.767153
LeftHandThumb1 -26.253704 0.000000 33.147579
Head -14.043409 8.190225 -22.672531
988
root 5.637992 32.943627 -8.667891 54.856063 23.146008 14.664330
RightUpLeg -42.493802 -49.462440 -13.023860
RightLeg -7.743313 -0.000000 0.000000
RightFoot -0.387214 -30.924718 39.765661
RightToeBase 14.095758 -0.000000 -0.000000
LeftUpLeg -85.154198 -8.163236 11.857922
LeftLeg 32.910739 -0.000000 -0.000000
LeftFoot -4.263173 5.871737 -29.743193
LeftToeBase 8.770345 -0.000000 -0.000000
Spine 77.886640 -0.915873 -12.858134
RightShoulder 12.415308 16.021261 -50.401925
RightArm 66.514806 27.149632 34.720239
RightForeArm -32.078381 -0.000000 28.562302
RightHand 9.173291 0.000000 -16.864209
RightHandThumb1 -24.326973 -0.000000 -32.862282
LeftShoulder 7.117841 19.293393 38.969544
LeftArm 86.985826 -50.226793 -40.929614
LeftForeArm 42.836583 0.000000 12.791994
LeftHand -16.934480 -0.000000 13.221375
LeftHandThumb1 -26.253704 0.000000 33.147579
Head -13.875825 8.077951 -22.549158
989
root 5.625358 32.943541 -8.679920 55.092188 23.089459 14.663852
RightUpLeg -42.863765 -49.465718 -12.797112
RightLeg -7.766143 -0.000000 0.000000
RightFoot -0.403458 -30.915719 39.799534
RightToeBase 14.107306 -0.000000 -0.000000
LeftUpLeg -85.368493 -8.103742 11.922926
LeftLeg 32.829194 -0.000000 -0.000000
LeftFoot -4.281298 6.029462 -29.772427
LeftToeBase 8.888640 -0.000000 -0.000000
Spine 77.953465 -0.912553 -12.835476
RightShoulder 12.265273 15.786724 -50.454068
RightArm 66.546690 27.532008 34.541907
RightForeArm -31.956583 -0.000000 28.485441
RightHand 9.599912 -0.000000 -17.522080
RightHandThumb1 -24.326973 -0.000000 -32.862282
LeftShoulder 6.942602 19.181855 38.966919
LeftArm 87.148045 -50.276490 -41.166634
LeftForeArm 42.556015 -0.000000 12.764073
LeftHand -17.027350 0.000000 13.811885
LeftHandThumb1 -26.253704 0.000000 33.147579
Head -13.832551 8.013776 -22.478740
990
root 5.613035 32.944435 -8.692157 55.357160 23.036508 14.681602
RightUpLeg -43.248241 -49.482238 -12.571742
RightLeg -7.792743 -0.000000 0.000000
RightFoot -0.440580 -30.919786 39.898373
RightToeBase 14.120935 -0.000000 -0.000000
LeftUpLeg -85.579666 -8.016860 11.886576
LeftLeg 32.711426 -0.000000 -0.000000
LeftFoot -4.106014 6.053650 -29.474853
LeftToeBase 8.053227 -0.000000 -0.000000
Spine 77.961196 -0.906360 -12.761702
RightShoulder 12.170906 15.624395 -50.461666
RightArm 66.421326 27.829983 34.371025
RightForeArm -32.082556 0.000000 28.478715
RightHand 9.912994 0.000000 -17.775379
RightHandThumb1 -24.326973 -0.000000 -32.862282
LeftShoulder 6.848808 18.965598 39.000951
LeftArm 87.335679 -50.231675 -41.518685
LeftForeArm 42.677791 -0.000000 12.728855
LeftHand -17.086620 0.000000 14.375199
LeftHandThumb1 -26.253704 0.000000 33.147579
Head -13.649406 8.004887 -22.408341
991
root 5.599738 32.948319 -8.700899 55.567606 22.966500 14.680187
RightUpLeg -43.577339 -49.464264 -12.383098
RightLeg -7.824667 -0.000000 0.000000
RightFoot -0.448300 -30.929233 39.986897
RightToeBase 14.063000 -0.000000 -0.000000
LeftUpLeg -85.733957 -7.908353 11.847193
LeftLeg 32.626056 -0.000000 -0.000000
LeftFoot -4.102048 5.968057 -29.542704
LeftToeBase 8.737615 -0.000000 -0.000000
Spine 78.058708 -0.855002 -12.714028
RightShoulder 12.031285 15.373406 -50.466585
RightArm 66.335354 28.208124 34.007800
RightForeArm -31.915923 -0.000000 28.323418
RightHand 10.593856 -0.000000 -18.710655
RightHandThumb1 -24.326973 -0.000000 -32.862282
LeftShoulder 6.715718 18.794575 39.063875
LeftArm 87.554482 -50.248351 -41.911060
LeftForeArm 42.423012 -0.000000 12.730647
LeftHand -17.213615 -0.000000 15.111192
LeftHandThumb1 -26.253704 0.000000 33.147579
Head -13.544038 7.939232 -22.224334
992
root 5.586705 32.950760 -8.714212 55.813323 22.872033 14.672013
RightUpLeg -43.964880 -49.420591 -12.189787
RightLeg -7.841683 -0.000000 0.000000
RightFoot -0.479165 -30.955238 40.062168
RightToeBase 14.117730 -0.000000 -0.000000
LeftUpLeg -85.938437 -7.776979 11.816822
LeftLeg 32.546778 -0.000000 -0.000000
LeftFoot -4.155053 5.933551 -29.856403
LeftToeBase 9.047580 -0.000000 -0.000000
Spine 78.089589 -0.849224 -12.781878
RightShoulder 11.937708 15.262366 -50.512536
RightArm 66.279835 28.491944 33.791866
RightForeArm -31.846628 -0.000000 28.162871
RightHand 11.256961 -0.000000 -19.605481
RightHandThumb1 -24.326973 -0.000000 -32.862282
LeftShoulder 6.523292 18.763473 39.007900
LeftArm 87.785948 -50.327686 -42.259553
LeftForeArm 42.562612 -0.000000 12.716671
LeftHand -17.387713 -0.000000 15.906054
LeftHandThumb1 -26.253704 0.000000 33.147579
Head -13.475841 7.937159 -22.182035
993
root 5.578300 32.945983 -8.734432 56.074326 22.847467 14.650362
RightUpLeg -44.385013 -49.427328 -11.917574
RightLeg -7.848151 -0.000000 0.000000
RightFoot -0.522191 -30.951839 40.210604
RightToeBase 14.085553 -0.000000 -0.000000
LeftUpLeg -86.225801 -7.680206 11.842927
LeftLeg 32.541226 -0.000000 -0.000000
LeftFoot -4.235214 5.933278 -30.242512
LeftToeBase 9.601486 -0.000000 -0.000000
Spine 78.069240 -0.728957 -12.270531
RightShoulder 11.534983 14.711180 -50.456056
RightArm 66.127578 28.760188 33.398629
RightForeArm -31.636441 0.000000 28.069922
RightHand 12.012579 -0.000000 -20.591012
RightHandThumb1 -24.326973 -0.000000 -32.862282
LeftShoulder 6.636559 17.977191 39.127501
LeftArm 88.051552 -49.911707 -42.728072
LeftForeArm 42.815370 -0.000000 12.572196
LeftHand -17.373135 -0.000000 16.818371
LeftHandThumb1 -26.253704 0.000000 33.147579
Head -13.196348 7.581544 -21.940034
